# xmcd
#
# Track frame offsets:
#	150
#	17885
#	31032
#	47529
#	65178
#	83920
#	99712
#	117381
#	132795
#	153124
#	168512
#	186800
#	204271
#	218425
#
# Disc length: 3115 seconds
#
# Revision: 1
# Processed by: cddbd v1.5.2PL0 Copyright (c) Steve Scherf et al.
# Submitted via: audiograbber 1.83.01
#
DISCID=b40c290e
DTITLE=Luke Bryan - Spring Break...Here to Party
DYEAR=2013
DGENRE=Country
TTITLE0=Suntan City
TTITLE1=Just a Sip
TTITLE2=Buzzkill
TTITLE3=If You Ain't Here to Party
TTITLE4=Little Bit Later On
TTITLE5=In Love With the Girl
TTITLE6=Shore Thing
TTITLE7=Sorority Girl (Demo)
TTITLE8=Shake the Sand
TTITLE9=Love In a College Town
TTITLE10=Wild Weekend
TTITLE11=Cold Beer Drinker
TTITLE12=Spring Break-Up
TTITLE13=Take My Drunk Ass Home (Demo)
EXTD=
EXTT0=
EXTT1=
EXTT2=
EXTT3=
EXTT4=
EXTT5=
EXTT6=
EXTT7=
EXTT8=
EXTT9=
EXTT10=
EXTT11=
EXTT12=
EXTT13=
PLAYORDER=
